<?xml version="1.0" encoding="UTF-8"?>
<svg version="1.1" viewBox="0 0 2048 901" width="779" height="343" xmlns="http://www.w3.org/2000/svg">
<path transform="translate(167,5)" d="m0 0h3v2l4 1 4-1 5 3h22l10 5 8 1 5 3 7 2 10 6 12 7 11 9 7 8 8 13 6 17v35l-4 9-3 7-8 13-9 12-8 8-17 12-8 7-4 1v-2l-6 1-4-5-10-19-5-5-3-2h-9l-5 4-7 15v7l-5 10 5 10v18l7 20 4 4v5l5 5 3 6 3 5h-2l7 8 17 17 2 1v2l4 2 9 8 8 7 13 10 6 4 10 5 9 7 6 4 4 4 5-1 6 5 6 3 1 3h6l4 3v2h6l4 3v2l4 1 7 3 8 3 9 2-6-12-3-4v-3h-2l-3-5-1-5-4-5v-8h-2l-3-6-2-6-3-7-3-11-1-7-1-1v-39l2-3v-7l8-15v-9l5-5 1-7 13-13 4-6 9-7 12-9 14-8 19-9 3-2 7 1 4-3 7-1 2-2h5l4 2 1-3 8-2 3-2 5 3 7-1 7 1 3-1 9 4 7-1 5 3 4 3h5 3l5 1 8 4h6l12 8 11 8 11 9 7 7 8 13 5 12 5 13 4 8v28l-4 10-6 10v6l-7 9-5 7-10 6-5-2-7-7v-2l-3-1-2-5-11-6-4-3-10-4-6-2h-7l-11 7-6 6v25l5 5-1 4 5 5 2 8 12 12 5 10 6 5 9 7 4 5 2 4 16 8 9 9 23 12 4 3 10 4 9 4 14 7 17 6 7 1 5 3 22 7 9 3 5 2h7l7 2 2 2 4 1h11l15 5 5 1h8l6 4 10 1h9l3 2 10 2 7 1h20l8 3h5l3 2 26 1 4-1 6 2 7 1h11l6 3h18l4 2h8l3 2 83 1 2 1v2h42l1-3h73l1-3h19l1-2h28l5-3h8l1-2 4-1 7 1 5-1h10l8 1 1-3 4-1 7 1 1-2 5-1h27l3-2 8-2 1-1h15l7-3 8-3 7 1 5-3h8l4-3h12l5-5h12l6-2 6-3 13-1 5-4 6-1h2v-2l4-2 8-1 7-3 12-4 19-9 11-6 13-7 3-3 5 1 8-7 8-5 14-10 10-9 16-16 12-17 7-7 1-5v-4l4-3 1-4v-23l-4-6-10-6-7-3-4 1-15 6-11 6-19 19-6-5-6-3-6-9-7-8-5-8v-10l-2-4v-24l2-3v-11l4-7 3-9 6-10 8-11 7-8 5-6 10-8 22-11 11-5 7 1 7-3 9-3 6 1 5-3h33l6 3 5-1 13 6 5-1 10 5 9 3v2l9 2 5 4 6 2 7 7 11 7 6 7 7 10 5 8 9 14 3 4v8l5 14v43l-2 7-3 6v11l-3 4h-2l-1 7 1 5-4 4h-2l1 5-2 4-2 1-4 7-5 8v5l7 2 7-6 7 1 7-6 14-7 3-3h6l5-6 5 1 5-5 9-6 3-1 1-2h2l1-3 4 1 8-7 16-12 8-7 13-11 13-13 6-8 8-8v-8l4-3 4-7 8-12v-11l3-8 2-4v-28l-3-7-4-9-7-10-3-2-5 1-8 5-4 4h-2l1 5-5 6-1 7-3 2-3 7-5-1-8-6h-5l-5-7-6-4-22-22-8-13-4-8v-11l-5-9v-17l3-8 2-5v-9h2l2-4 4-7 26-26 4 1 7-6h4l2-4 1-1 7 1 2-5 6-1 3 1 5-3h7v-2l2-1h21l14-1 3-2h5l1 3h31l11 6 4-1 5 4 7 4v2l5 1 3-1 5 3v2l6 1 2-1 8 6v2l4 2 6 4 12 9 9 9 9 14 7 8 2 2v5l5 5 1 7 5 5-1 6 4 14 1 2v47l-2 3-2 8-1 5 1 3-2 4-3 2-1 9-8 14-11 17h-2l1 4-9 11-7 9-31 31-13 10-11 9-9 8-8 4-10 9-5-1v2l-2 2-3 5-8 5-3 3-5-1v2l-11 9-11 7-6 4-4-1v2l-5 4-5-1-1 3-5 2-6 3-4 3-6 2-4 4-6-1-1 3-4 3h-5l-5 5-2 1-4-2-2 4-3 1-1 2-4-1-1 2h-2v2h-2v2l-6-1v2l-7 3-5 1-5-1-1 2h-3l-1 4h-9l-3 1-1 4-3 1-5-1-5 3-5 1-7 4-5-1v2l-4 2-5 1-8 4-9 3-3 2h-7l-8 6-10-1-5 3h-5l-4 4-8-1-7 4h-3l-1 2-4-1h-5l-8 4h-2l-1 2-8-1-4 3h-5l-3 1v2h-5l-3-1-6 2-2 3-5 1-4-2v2l-9-1-5 3-7 2-4 2-4-1-4 3-6-1-1 3-5 1-3-2-2 2h-3v-2h-5l-1 2-15 6-3-2-7 2-3 2-4-1h-6l-4 3h-5-4l-8-1-2 4-8-1-7 4-4-2-2 2-4-1h-6l-4 4-5-2-5 4-4-1h-3l-4 1-1-1h-5l-3 4-6-2-5 4-8-1-3 2-3-2h-3l-5 1-5-1-4 4-8-1-2 3-8-1-2-1-1 3-6-1-1-1-2 2v-2l-3 1h-6l-4 3-9-1-6 3h-9l-2 1v-2l-4 2v-2l-7 2v-2l-7 1-2 3h-19l-2 2h-46l-1 3h-36l-5-1-1 3h-209l-1-2h-43l-3-3h-42l-1-3-9 1h-12l-3-2v-2l-13 1h-19l-4-3-8 1v-2l-10-1h-20l-3-3h-5-4l-3-1v-2l-9 1-7-1-2 1h-13l-3-2-7-2-4-2-5 1-11-1-3 1-5-2v-2l-8 1v-2l-8-1h-3-12l-9-5h-20l-6-2-2-3-5-1-4 1-4-1-7 1-5-3-5-1-4-2-10 1-3-1h-6l-3-2v-2l-7-1h-4l-7-3-5-2h-9l-5-2v-2h-3v2l-5-1v-2h-4v-2l-3 2-7-1-2-2h-4v-2l-9-1-2 1-10-3v-2l-11-1-7-1-3-2v-3l-6 2-2-2h-2v-2h-6l-9-4v2l-7-1-5-2-4-3-3 1-10-4-2-2-6-1-4-4h-9l-9-4-6-3v2l-7-2v-2l-9-2-7-3-2-2h-6l-5-3v-3l-8 1-5-4v-2l-5-1v2l-9-3-17-9-6-4-4-1-8-4-5-1-4-3v-2l-6-1-7-4-3 1v-2h-2v-2l-6-2-14-8-43-29-12-8-7-6-20-16-9-7-5-4v-4h-2v-2l-5-1-9-7-6-7-7-8-11-11-11-16-6-7-6-9-2-6-4-7-6-17-3-2-1-8v-10l-2-4-2-11-1-1v-19l2-3v-9l2-3 1-10 1-9 4-2v-6l3-4 3-2-1-4 4-5 2-1-1-4 5-6 3-6 4-3 4-2v-5l3-3 5-3 9-8 5-3 8-7 4-1 2-4 3-1h4l5-5 5 1 3-5 5-1 2 1 4-5 7-1 8-1 8-4h23z" fill="#F58D3D"/>
<path transform="translate(395,503)" d="m0 0 12 7 5 4 4 2 3 3 3 1 6-1 8 3 7 3 5-1 16 5 1 1h11l6 2 3 2 8 2 7 5 8 4 8 9 8 13 3 4-1 7 3 5v11l-3 4v9l-7 8-8 6-9 2h-10l-8-4-7-6-2-3h-5l-15-14-7-4-5 1v46l8 1 5 1 11 8 9 6 8 3v10l3 5v12l2 2v7l-2 2-1 41-11 11-6 3-27 1v50l1 26 5 1 5-5h7l4-8 18-10 3-3h16l4-3 5 1 6 2 6 1 9 6 3 4 3 5 5 6v8l5 6 5 1 9-7 1-10v-173l-9-12-9-14-3-4v-35l4-4h2l-1-6 7-8 5-5 7-1 2-2h17l8 7 3 3v2l6 1h14l6-3 9 1 5-1 6 3h7l4 5 1 5 6 2 3 2v33l-3 3-3 8-11 16-3 5v173h9l4-1 3-6 5-4 11-9 4-2 4 2 5-3h13l12 3 8 6 5 6 3 8 2 9 3 8 6-3 9-13 3-2h3l-1-172-6-8-6-7v-6l-4-2-1-1v-29l8-12 7-6 7-3h10l8 3 4 3 4-1 16 8h38l2-2h11l3-1 9 3 10 4 3-2 6 4 14 9 4 5 2 4 7 6 1 7v29l-5 9-6 5-17 8h-7l-9-3-3-2h-7l-6-5-5-1-4-4h-7l-3 5 1 7 12 5 8 4 9 9 6 9 1 5-1 62-7 9-4 4-9 3-9 2-6 3v29l7-2 7-6 4-2 3-6h6l5-5h8l2-4 5-1 4 3 5-1 11 4 14 14 5 13 1 7 2 3v19l3 1h3l1-7 2-3v-7l8-7 6-9 1-1 1-129-15-22-3-9-3-5v-28l4-7 4-6 11-8 5-3 3-2 8 1 6-6h6l2-2h10l5 3 7-1 4 3v2l5 1 8-1h8l2-4 5-1 3-1 3-4h33l16 8 8 7 6 5 6 4 8 16 4 5 1 3-1 5 5 10v18l-2 1v8l-3 4v7l-7 13-6 7-3 6 11 12 12 12 8 16 1 19 2 2v27l-2 2v10l-1 12-4 6v7l-5 6-3 10-8 10-3 6-10 9-15 8h-2v-2l-9 5-4 1h-33l-5-3-1-1h-7l-15-6-6 2-9 4h-3l-5 5-6-1-11 1-1 1-12-1-9-4-18-18-2-5 1-5h-5l-7 11-8 11-5 4-7 1-1 2h-10l-6 2h-37v-2h-43v2h-38l-11-8-6-7-4-14-5-2h-3l-1 6-2 3v7l-2 3h-2l-1 3-13 9h-9l-2 2-21 1-18-1-1-1-15-1-9-2-6-2-26-1-1 3h-10l-5 2h-22l-14-14-2-1h-6l-10 9-7 6h-7v3h-151v-2l-4-2-9-7-4-5-2-7-1-19 3-9 1-7 6-8 4-7 2-3v-252l-10-7-1-4 1-5-3-5v-26l5-10 7-7 7-1 4-4h21zm633 148-5 2-1 4v14l-2 2v7l2 2 1 9 2 2h10l5-4 6-4 5-11 1-9-4-6-7-7-3-1zm1 108-7 4-2 3v8l2 2v16l1 32 7 1h13l5-3 4-5 5-13v-6l-2-3-1-10-2-2-1-9-6-3-4-5-5-5-4-2z" fill="#F58F40"/>
<path transform="translate(167,5)" d="m0 0h3v2l4 1 4-1 5 3h22l10 5 8 1 5 3 7 2 10 6 12 7 11 9 7 8 8 13 6 17v35l-4 9-3 7-8 13-9 12-8 8-17 12-8 7-4 1v-2l-6 1-4-5-10-19-5-5-3-2h-9l-5 4-7 15v7l-5 10 5 10v18l7 20 4 4v5l5 5 3 6 3 5h-2l7 8 17 17 2 1v2l4 2 9 8 8 7 13 10 6 4 10 5 9 7 6 4 4 4 5-1 6 5 6 3 1 3h6l4 3v2h6l4 3v2l4 1 7 3 8 3 9 2-6-12-3-4v-3h-2l-3-5-1-5-4-5v-8h-2l-3-6-2-6-3-7-3-11-1-7-1-1v-39l2-3v-7l8-15v-9l5-5 1-7 13-13 4-6 9-7 12-9 14-8 19-9 3-2 7 1 4-3 7-1 2-2h5l4 2 1-3 8-2 3-2 5 3 7-1 7 1 3-1 9 4 7-1 5 3 4 3h5 3l5 1 8 4h6l12 8 11 8 11 9 7 7 8 13 5 12 5 13 4 8v28l-4 10-6 10v6l-7 9-5 7-10 6-5-2-7-7v-2l-3-1-2-5-11-6-4-3-10-4-6-2h-7l-11 7-6 6v25l5 5-1 4 5 5 2 8 12 12 5 10 6 5 9 7 4 5 2 4 16 8 9 9 23 12 4 3 10 4 9 4 14 7 17 6 7 1 5 3 22 7 9 3 5 2h7l7 2 2 2 4 1h11l15 5 5 1h8l6 4 10 1h9l3 2 10 2 7 1h20l8 3h5l3 2 26 1 4-1 6 2 7 1h11l6 3h18l4 2h8l3 2 83 1 2 1v2h42l1-3h73l1-3h19l1-2h28l5-3h8l1-2 4-1 7 1 5-1h10l8 1 1-3 4-1 7 1 1-2 5-1h27l3-2 8-2 1-1h15l7-3 8-3 7 1 5-3h8l4-3h12l5-5h12l6-2 6-3 13-1 5-4 6-1h2v-2l4-2 8-1 7-3 12-4 19-9 11-6 13-7 3-3 5 1 8-7 8-5 14-10 10-9 16-16 12-17 7-7 1-5v-4l4-3 1-4v-23l-4-6-10-6-7-3-4 1-15 6-11 6-19 19-6-5-6-3-6-9-7-8-5-8v-10l-2-4v-24l2-3v-11l4-7 3-9 6-10 8-11 7-8 5-6 10-8 22-11 11-5 7 1 7-3 9-3 6 1 5-3h33l6 3 5-1 13 6 5-1 10 5 9 3v2l9 2 5 4 6 2 7 7 11 7 6 7 7 10 5 8 9 14 3 4v8l5 14v43l-2 7-3 6v11l-3 4h-2l-1 7 1 5-4 4h-2l1 5-2 4-2 1-4 7-5 8v5l7 2 7-6 7 1 7-6 14-7 3-3h6l5-6 5 1 5-5 9-6 3-1 1-2h2l1-3 4 1 8-7 16-12 8-7 13-11 13-13 6-8 8-8v-8l4-3 4-7 8-12v-11l3-8 2-4v-28l-3-7-4-9-7-10-3-2-5 1-8 5-4 4h-2l1 5-5 6-1 7-3 2-3 7-5-1-8-6h-5l-5-7-6-4-22-22-8-13-4-8v-11l-5-9v-17l3-8 2-5v-9h2l2-4 4-7 26-26 4 1 7-6h4l2-4 1-1 7 1 2-5 6-1 3 1 5-3h7v-2l2-1h21l14-1 3-2h5l1 3h31l11 6 4-1 5 4 7 4v2l5 1 3-1 5 3v2l6 1 2-1 8 6v2l4 2 6 4 12 9 9 9 9 14 7 8 2 2v5l5 5 1 7 5 5-1 6 4 14 1 2v47l-2 3-2 8-1 5 1 3-2 4-3 2-1 9-8 14-11 17h-2l1 4-9 11-7 9-31 31-13 10-11 9-9 8-8 4-10 9-5-1v2l-2 2-3 5-8 5-3 3-5-1v2l-11 9-11 7-6 4-4-1v2l-5 4-5-1-1 3-5 2-6 3-4 3-6 2-4 4-6-1-1 3-4 3h-5l-5 5-2 1-4-2-2 4-3 1-1 2-4-1-1 2h-2v2h-2v2l-6-1v2l-7 3-5 1-5-1-1 2h-3l-1 4h-9l-3 1-1 4-3 1-5-1-5 3-5 1-7 4-5-1v2l-4 2-5 1-8 4-9 3-3 2h-7l-8 6-10-1-5 3h-5l-4 4-8-1-7 4h-3l-1 2-4-1h-5l-8 4h-2l-1 2-8-1-4 3h-5l-3 1v2h-5l-3-1-6 2-2 3-5 1-4-2v2l-9-1-5 3-7 2-4 2-4-1-4 3-6-1-1 3-5 1-3-2-2 2h-3v-2h-5l-1 2-15 6-3-2-7 2-3 2-4-1h-6l-4 3h-5-4l-8-1-2 4-8-1-7 4-4-2-2 2-4-1h-6l-4 4-5-2-5 4-4-1h-3l-4 1-1-1h-5l-3 4-6-2-5 4-8-1-3 2-3-2h-3l-5 1-5-1-4 4-8-1-2 3-8-1-2-1-1 3-6-1-1-1-2 2v-2l-3 1h-6l-4 3-9-1-6 3h-9l-2 1v-2l-4 2v-2l-7 2v-2l-7 1-2 3h-19l-2 2h-46l-1 3h-36l-5-1-1 3h-209l-1-2h-43l-3-3h-42l-1-3-9 1h-12l-3-2v-2l-13 1h-19l-4-3-8 1v-2l-10-1h-20l-3-3h-5-4l-3-1v-2l-9 1-7-1-2 1h-13l-3-2-7-2-4-2-5 1-11-1-3 1-5-2v-2l-8 1v-2l-8-1h-3-12l-9-5h-20l-6-2-2-3-5-1-4 1-4-1-7 1-5-3-5-1-4-2-10 1-3-1h-6l-3-2v-2l-7-1h-4l-7-3-5-2h-9l-5-2v-2h-3v2l-5-1v-2h-4v-2l-3 2-7-1-2-2h-4v-2l-9-1-2 1-10-3v-2l-11-1-7-1-3-2v-3l-6 2-2-2h-2v-2h-6l-9-4v2l-7-1-5-2-4-3-3 1-10-4-2-2-6-1-4-4h-9l-9-4-6-3v2l-7-2v-2l-9-2-7-3-2-2h-6l-5-3v-3l-8 1-5-4v-2l-5-1v2l-9-3-17-9-6-4-4-1-8-4-5-1-4-3v-2l-6-1-7-4-3 1v-2h-2v-2l-6-2-14-8-43-29-12-8-7-6-20-16-9-7-5-4v-4h-2v-2l-5-1-9-7-6-7-7-8-11-11-11-16-6-7-6-9-2-6-4-7-6-17-3-2-1-8v-10l-2-4-2-11-1-1v-19l2-3v-9l2-3 1-10 1-9 4-2v-6l3-4 3-2-1-4 4-5 2-1-1-4 5-6 3-6 4-3 4-2v-5l3-3 5-3 9-8 5-3 8-7 4-1 2-4 3-1h4l5-5 5 1 3-5 5-1 2 1 4-5 7-1 8-1 8-4h23zm-14 19-22 4-21 7-19 9-12 8-12 9-10 9-8 8-12 18-7 14-5 16-2 13v26l4 22 7 19 11 21 10 14 9 11 12 13 17 17 14 11 11 10 14 11 17 12 18 13 17 11 24 14 23 12 32 16 30 13 49 18 31 11 55 16 42 11 38 9 46 10 83 15 59 9 64 8 48 5 35 3 55 3 46 2 53 1h73l63-2 57-3 66-5 69-8 51-7 68-11 54-10 56-12 60-15 45-13 47-15 43-16 33-14 20-9 41-21 21-12 27-18 19-14 14-10 14-11 13-12 8-7 14-12 7-8 12-14 11-14 8-13 8-16 7-21 3-15 1-8v-12l-2-19-5-16-7-16-10-15-9-10-10-10-15-11-17-10-19-8-16-5-22-4h-30l-18 3-21 7-17 9-12 9-9 9-7 10-4 8-2 8v20l5 15 6 11 12 15 11 9 8 6h2l8-13 7-8 8-5 3-1h14l10 5 6 5 7 11 4 10 2 11v27l-4 20-5 15-8 16-7 12-10 13-11 12-7 8-12 11-14 11-17 12-19 12-25 14-16 8-33 16-30 13-23 9-7 2h-8l-3-1 1-6 8-9 13-10 13-12 12-14 9-14 9-17 7-17 5-21 1-6v-23l-4-20-5-12-7-13-8-11-5-6-17-13-27-14-19-6-16-3-9-1h-22l-14 2-21 7-17 9-12 9-9 8-11 15-8 17-3 11-1 7v14l3 12 7 14 3 4 4-1 8-8 16-10 12-4 5-1h17l11 4 10 9 6 12 1 4v22l-4 13-10 19-12 16-9 10-16 16-11 9-13 9-15 9-26 14-32 14-38 13-32 9-35 8-41 8-48 7-53 6-60 5-65 4-23 1h-26l-66-4-64-5-47-5-45-6-35-6-49-10-30-8-44-14-24-10-20-9-11-6-19-11-12-8-14-11-15-14-8-8-9-11-9-12-8-14-6-15-1-4v-17l4-15 4-6 9-8 11-4 12-1 15 3 12 5 10 6 10 9 4 1 9-14 4-16v-14l-3-15-5-12-7-11-8-10-9-9-17-12-18-8-14-4-19-3h-23l-19 3-21 7-17 9-15 10-10 9-7 7-10 15-7 14-4 17-1 8v23l5 25 5 14 12 23 9 14 11 13 10 10 16 12 6 5 2 4v6l-2 1h-8l-16-5-34-14-20-9-44-22-28-17-18-12-16-12-13-11-19-19-9-11-10-14-12-23-5-15-4-20-1-6v-16l3-16 5-12 6-9 8-7 6-3 5-1h8l8 3 8 6 8 10 4 9 5-2 9-7 11-10 11-15 6-13 3-10v-19l-4-12-7-12-11-11-12-9-16-8-13-5-10-3-22-3z" fill="#F59449"/>
<path transform="translate(97,388)" d="m0 0h26l17 10 9 9 10 7v2l4 1 3 2 6 1 3 3 7 4 5 3 4 1 5 4 7 2 4 5 10 3 20 8 4 3 5 1 2 4 8 1 3 3 16 8 13 7 5 6 3 2 6-1 3 3 3 5 6 9 7 7 1 7 3 5 2 5-1 7 3 6v12l2 2v22l-4 4-8 16-2 2h-29l-3-2v-2l-4-2-10-8-10-10-4-6-8-7-7-7-9-11-7-9-9-9h-12l-4 1-1 102v24l-3 1 1 126 2 2v6l4 6 6 8 11 4 4 2h12l17-6 19-13 9-12 11-17 7-14h4l20 20 12 18 3 9 3 5 1 25 2 2v5l-2 2-1 15-4 6-3 9-3 3v7l-5 5-6 4-11 11-5 2-4 1-6 3h-6l-5 2-9 1h-39l-13-3h-12l-6-2h-7l-3-1v-2h-72l-1 3h-11l-4-1v-2l-11 1-14-9-7-7-4-11-3-4v-38l2-4 2-10 3-8 13-13v-291l-9-11-3-3-8-3v-9l-3-8-1-6-1-1v-28l11-22 5-5h3l2-9 4-1h4z" fill="#F58D3D"/>
<path transform="translate(1952,386)" d="m0 0h20l11 4 9 7 4 7 5 4 3 5 1 6 3 5 1 7v6l2 2v46l-2 3v9l-5 6-4 8-8 6-5 4-12-1v2l-4 2-3-3h-5v-2h-3v-2l-6 2-7 3-4 9-3 6 1 4-2 4-4 6v8l-4 3-1 6v5h-2v5h-2l-1 7-1 5h-2l-1 5-2 4 1 7-2 4-3 2-1 5 1 4-3 5-2 1-1 26v148l1 6 4 3 2 8 9 18v6l3 5-1 10 3 3-2 5-1 2 3 4-2 4-3 1-1 6-4 3v5l-6 7-11 4h-24l-18-5-5 1-10 3-1 1h-31l-8-6-7-8-4-10v-8l-2-3v-26l4-12 7-10 4-5v-8l5-4v-155l-5-19v-10l-4-6-8-21-4-1-12 11-3 2h-21l-4-2v-2h-2l-2-3-7-2-6-6-2-7-4-5-2-4-1-8-2-3v-43l14-20 8-7 4-2 9-1 6-4 3-5 6-4 9-8 9-2 4 1 6-1 6 3 4-1 5 3 8 8 2 5 3 3v7h2v2l4 2 5 6-1 4 3 5 3 4 2 4 3 2 1 9h10l3-3 1-4v-8l4-7 4-12 4-10 4-12-1-6 5-7 2-9 4-5v-11l6-9 5-7 4-8 7-7 3-2h3l2-4 6-5 6-2v-2l3-2h11z" fill="#F58D3D"/>
<path transform="translate(1255,578)" d="m0 0h31l14 5 8 5 10 16 2 2 2 8 3 5v12l3 4v8l3 4-1 5-1 1-1 31-3 4 1 6-5 10-1 4v5l-4 2-2 6-7 13-7 4-3 6-8 5v14l7 8 5 10 6 7 5 9 5 5 1 6 8 1 10 4 5 3 1 7 5 4-1 6 3 5v5l-2 3-1 17-5 5 1 6-9 10-14 14-4 3h-34l-19-19-1-5v-6l-2-3h-5l-4 5-1 18-5 6-4 4h-85l-9-9-1-7-4-3v-25l5-6 4-8 6-6v-155l-13-19-4-7-4-11v-14l5-10 2-7 9-9 13-8 5-5 7-5 7 1 4-3h11l9 4 4 4h5l2 2 5-1 8-5 8-3zm-18 68-4 3v47l1 2h7l6-12-1-6 4-11 1-3v-14l-6-6z" fill="#F58D3D"/>
<path transform="translate(1656,509)" d="m0 0h20l12 5 8 7 7 10 6 7 3 9 2 3v29l-5 8-5 5v5l-14 14-9-1-3 2h-10l-3-2h-11l-4 1-1 4-1 165-2 2 1 8 2 4v11l2 2 1 10 4 6 1 9 5 4-1 38-4 2-1 8-4 6-5 4-9 4h-81l-5-4-6-5-5-8-3-9-3-4 2-5 1-4-1-7 3-5v-7l7-13 6-4h2l2-6 3-5 1-6v-141l-1-20h-6l-8 5-1 1h-33l-11-8-7-8-3-8-4-5-5-13v-12l2-7 3-5v-10l3-3 6-4 4-7 7-4 16-5 1-1h18l2-2h44l1-3 4-1 4 1 5-5 5-1 2-4 10-7 10-10 6 1 2-4 5-2 10-3z" fill="#F58D3D"/>
<path transform="translate(154,18)" d="m0 0h27l21 3 15 4 20 9 18 12 6 5 9 11 6 10 4 14 1 7v11l-3 11-7 16-10 14-4 5-8 7-17 13-5 2-10-18-8-9-6-3h-12l-10 5-6 8-6 14-2 7-1 17 3 21 5 19 8 17 10 17 13 16 11 12 8 7 12 10 16 12 21 14 18 11 17 9 22 12 21 9 34 15 18 7 9 1-5-4-8-6-14-12-9-9-11-14-8-13-8-16-6-14-4-15-3-17v-21l3-20 6-18 8-14 11-13 14-13 14-9 16-8 16-6 25-5 9-1h20l22 3 16 6 13 6 14 8 15 14 8 9 8 14 5 10 3 11 1 7v20l-3 12-6 11-9 11-4 1-9-9-14-10-13-6-9-2h-9l-13 4-7 5-6 12-1 5v18l4 13 10 19 7 9 12 14 17 17 14 11 15 10 27 15 24 11 33 13 24 8 30 8 34 8 36 7 40 6 59 7 60 5 81 4h41l78-4 57-5 62-7 40-6 36-7 39-9 28-8 36-12 30-13 20-10 22-13 14-10 11-9 16-15 7-7 9-11 9-14 7-14 3-10v-19l-4-11-4-6-8-6-9-3h-11l-12 3-14 7-9 7-10 10h-3l-11-14-5-8-3-11v-23l3-14 6-14 7-11 11-13 10-9 10-7 16-8 15-6 18-4 11-1h15l19 2 20 5 16 7 21 11 13 10 8 7 10 13 9 16 5 13 3 17v29l-4 22-7 21-12 23-12 16-12 13-11 10-13 10-6 5 5-1 22-8 25-11 21-9 38-19 22-13 11-7 15-10 14-10 14-11 12-11 8-8 9-11 9-12 12-22 7-21 3-21v-20l-4-16-6-11-4-5-9-5-10-1-7 3-4 3h-2l-2 4-8 13-4 8-5-2-10-7-11-9-7-7-10-14-7-14-3-11v-20l3-12 7-14 12-13 11-9 14-8 15-6 17-5 24-3h18l17 2 21 5 16 6 17 8 17 11 17 14 7 7 11 15 9 16 6 15 4 18 1 9v18l-3 22-7 20-9 19-10 15-10 13-9 10-7 8-15 15-8 7-11 10-28 22-19 13-11 8-16 10-13 8-25 14-19 10-32 15-44 18-44 16-28 9-56 16-75 18-39 8-58 11-61 10-45 6-61 7-79 7-34 2-71 3h-125l-49-2-57-3-25-2-73-7-77-10-81-13-44-8-51-11-50-12-42-11-41-12-44-15-37-14-37-16-33-16-20-11-17-10-18-11-14-10-18-13-18-14-17-14-11-9-27-27-9-11-12-16-8-13-10-22-5-15-3-17v-26l3-19 5-15 11-21 10-13 9-10 8-7 15-11 10-6 16-8 19-7 25-5zm-1 6-22 4-21 7-19 9-12 8-12 9-10 9-8 8-12 18-7 14-5 16-2 13v26l4 22 7 19 11 21 10 14 9 11 12 13 17 17 14 11 11 10 14 11 17 12 18 13 17 11 24 14 23 12 32 16 30 13 49 18 31 11 55 16 42 11 38 9 46 10 83 15 59 9 64 8 48 5 35 3 55 3 46 2 53 1h73l63-2 57-3 66-5 69-8 51-7 68-11 54-10 56-12 60-15 45-13 47-15 43-16 33-14 20-9 41-21 21-12 27-18 19-14 14-10 14-11 13-12 8-7 14-12 7-8 12-14 11-14 8-13 8-16 7-21 3-15 1-8v-12l-2-19-5-16-7-16-10-15-9-10-10-10-15-11-17-10-19-8-16-5-22-4h-30l-18 3-21 7-17 9-12 9-9 9-7 10-4 8-2 8v20l5 15 6 11 12 15 11 9 8 6h2l8-13 7-8 8-5 3-1h14l10 5 6 5 7 11 4 10 2 11v27l-4 20-5 15-8 16-7 12-10 13-11 12-7 8-12 11-14 11-17 12-19 12-25 14-16 8-33 16-30 13-23 9-7 2h-8l-3-1 1-6 8-9 13-10 13-12 12-14 9-14 9-17 7-17 5-21 1-6v-23l-4-20-5-12-7-13-8-11-5-6-17-13-27-14-19-6-16-3-9-1h-22l-14 2-21 7-17 9-12 9-9 8-11 15-8 17-3 11-1 7v14l3 12 7 14 3 4 4-1 8-8 16-10 12-4 5-1h17l11 4 10 9 6 12 1 4v22l-4 13-10 19-12 16-9 10-16 16-11 9-13 9-15 9-26 14-32 14-38 13-32 9-35 8-41 8-48 7-53 6-60 5-65 4-23 1h-26l-66-4-64-5-47-5-45-6-35-6-49-10-30-8-44-14-24-10-20-9-11-6-19-11-12-8-14-11-15-14-8-8-9-11-9-12-8-14-6-15-1-4v-17l4-15 4-6 9-8 11-4 12-1 15 3 12 5 10 6 10 9 4 1 9-14 4-16v-14l-3-15-5-12-7-11-8-10-9-9-17-12-18-8-14-4-19-3h-23l-19 3-21 7-17 9-15 10-10 9-7 7-10 15-7 14-4 17-1 8v23l5 25 5 14 12 23 9 14 11 13 10 10 16 12 6 5 2 4v6l-2 1h-8l-16-5-34-14-20-9-44-22-28-17-18-12-16-12-13-11-19-19-9-11-10-14-12-23-5-15-4-20-1-6v-16l3-16 5-12 6-9 8-7 6-3 5-1h8l8 3 8 6 8 10 4 9 5-2 9-7 11-10 11-15 6-13 3-10v-19l-4-12-7-12-11-11-12-9-16-8-13-5-10-3-22-3z" fill="#FDFCFA"/>
<path transform="translate(1433,572)" d="m0 0h16l10 4 8 9 5 10 1 14-3 5v7l3 4-2 5-3 3-1 7-4 3-1 7-3 3h-2v168l5 5 1 7 8 7 7 20-1 8-9 18-3 7-4 2-1 2-3 1h-40v2l-26 1-12-3-12-8-1-7-4-3v-31l9-17 1-8 2-3v-158l-6-8v-2l-4-2-4-5-4-8v-28l4-14 6-7 5-6 9-5 39-1 7-3z" fill="#F58D3D"/>
<path transform="translate(97,388)" d="m0 0h26l17 10 9 9 10 7v2l4 1 3 2 6 1 3 3 7 4 5 3 4 1 5 4 7 2 4 5 10 3 20 8 4 3 5 1 2 4 8 1 3 3 16 8 13 7 5 6 3 2 6-1 3 3 3 5 6 9 7 7 1 7 3 5 2 5-1 7 3 6v12l2 2v22l-4 4-8 16-2 2h-29l-3-2v-2l-4-2-10-8-10-10-4-6-8-7-7-7-9-11-7-9-9-9h-12l-4 1-1 102v24l-3 1 1 126 2 2v6l4 6 6 8 11 4 4 2h12l17-6 19-13 9-12 11-17 7-14h4l20 20 12 18 3 9 3 5 1 25 2 2v5l-2 2-1 15-4 6-3 9-3 3v7l-5 5-6 4-11 11-5 2-4 1-6 3h-6l-5 2-9 1h-39l-13-3h-12l-6-2h-7l-3-1v-2h-72l-1 3h-11l-4-1v-2l-11 1-14-9-7-7-4-11-3-4v-38l2-4 2-10 3-8 13-13v-291l-9-11-3-3-8-3v-9l-3-8-1-6-1-1v-28l11-22 5-5h3l2-9 4-1h4zm11 15-10 6-10 10-6 10-2 7v22l2 9 9 10 9 11 4 7 1 4 1 129v41l-1 115-1 12-3 5-9 7-5 8-3 12v27l3 10 7 9 8 4 6 1h59l25 1 42 6 10 1h29l15-3 14-7 10-9 6-7 7-15 3-13v-18l-3-15-7-13-11-15h-2l-6 10-7 9-9 10-13 10-15 8-9 3-7 1h-15l-13-3-11-7-10-9-4-5-3-7-1-6v-121l2-141 2-9 5-5 8-3h10l9 2 6 3 10 9 13 13 7 8 12 13 9 10 13 13 9 6 8 1 5-5 3-7 1-4v-19l-3-15-4-12-8-12-9-10-17-10-30-15-19-10-47-23-16-8-18-12-20-15-8-5z" fill="#F59246"/>
<path transform="translate(382,519)" d="m0 0 7 1 19 11 16 6 43 7 12 4 13 7 8 7 8 11 4 10 1 8-2 9-4 5-5 2-8-1-11-7-24-24-8-7-8-6-3-1h-8l-4 5-2 7v81l2 12 1 2h6l8-7 6-5 5 3 11 9 6 6 1 3v17l-1 35-5 5-6 2-8-1-8-9-10-18-1-1h-6l-1 29v101l2 8 4 4h11l9-4 16-10 10-7 14-8 10-3 8 1 8 4 6 7 5 12 1 4v14l-3 10-6 9-7 7-6 3-37-2h-47l-21 2h-23l-8-3-5-5-3-6-1-4v-10l3-10 5-9 4-4 4-1v-265l-10-12-3-6-1-5v-16l3-5 8-6z" fill="#F58D3D"/>
<path transform="translate(1952,386)" d="m0 0h20l11 4 9 7 4 7 5 4 3 5 1 6 3 5 1 7v6l2 2v46l-2 3v9l-5 6-4 8-8 6-5 4-12-1v2l-4 2-3-3h-5v-2h-3v-2l-6 2-7 3-4 9-3 6 1 4-2 4-4 6v8l-4 3-1 6v5h-2v5h-2l-1 7-1 5h-2l-1 5-2 4 1 7-2 4-3 2-1 5 1 4-3 5-2 1-1 26v148l1 6 4 3 2 8 9 18v6l3 5-1 10 3 3-2 5-1 2 3 4-2 4-3 1-1 6-4 3v5l-6 7-11 4h-24l-18-5-5 1-10 3-1 1h-31l-8-6-7-8-4-10v-8l-2-3v-26l4-12 7-10 4-5v-8l5-4v-155l-5-19v-10l-4-6-8-21-4-1-12 11-3 2h-21l-4-2v-2h-2l-2-3-7-2-6-6-2-7-4-5-2-4-1-8-2-3v-43l14-20 8-7 4-2 9-1 6-4 3-5 6-4 9-8 9-2 4 1 6-1 6 3 4-1 5 3 8 8 2 5 3 3v7h2v2l4 2 5 6-1 4 3 5 3 4 2 4 3 2 1 9h10l3-3 1-4v-8l4-7 4-12 4-10 4-12-1-6 5-7 2-9 4-5v-11l6-9 5-7 4-8 7-7 3-2h3l2-4 6-5 6-2v-2l3-2h11zm8 15-11 2-16 8-12 11-7 10-6 14-17 52-14 41-12 35-1 5-3-3-9-16-15-28-8-14-12-22-7-10-6-5-9-1-8 4-7 7-11 7-14 7-7 7-6 12-1 4v25l3 14 7 11 9 7 5 2 6-1 4-5 3-10 2-13 1-4 8-1 8 4 7 10 8 18 12 36 3 16 1 9v149l-3 15-5 12-8 13-3 9v20l6 18 7 6 2 1h9l12-5 7-4 5-1h9l14 5 11 5 5-1 6-4 7-8 3-9v-12l-4-16-6-15-5-8-4-13-1-9v-144l3-24 6-22 10-29 14-41 12-36 5-12 3-3 6 1 6 9 7 10 4 2 8 1 8-4 7-9 4-11 1-6v-23l-3-19-4-13-6-10-7-6-7-3z" fill="#F59144"/>
<path transform="translate(760,594)" d="m0 0 9 1 30 10 7 1h55l12 3 9 6 7 7 6 12v12l-3 8-8 7h-8l-12-4-17-9-15-10-8-4h-6l-3 4v61l3-1v3l8-4 7-3 7 1 7 8 5 12 1 4v40l-3 6-6 5-3 1h-7l-8-7-6-6h-5v71l3 7 5 3 8 1 7-2 16-13 11-8 12-6h8l9 6 7 10 3 12v19l-4 11-6 7-8 5-8 2h-13l-23-2h-43l-16 2h-16l-7-3-5-6-3-11v-11l3-9 8-10 5-5 1-4 1-73-1-107-9-11-6-9-2-7v-9l3-10z" fill="#F58D3D"/>
<path transform="translate(571,575)" d="m0 0h7l12 10 9 3h11l14-4h8l8 4 5 6 2 6v9l-4 11-10 15-6 8-1 2v197l3 5 4 1h9l12-4 11-8 7-8 8-7 8-4h12l8 4 4 5 2 7v16l-1 17-3 10-8 7-10 3h-23l-38-6h-31l-24 3-9-3-4-5-2-5v-7l3-9 8-8 5-3 1-9v-161l-1-26-4-11-6-8-7-7-4-8-1-3v-15l4-10 5-6z" fill="#F58D3D"/>
<path transform="translate(1255,578)" d="m0 0h31l14 5 8 5 10 16 2 2 2 8 3 5v12l3 4v8l3 4-1 5-1 1-1 31-3 4 1 6-5 10-1 4v5l-4 2-2 6-7 13-7 4-3 6-8 5v14l7 8 5 10 6 7 5 9 5 5 1 6 8 1 10 4 5 3 1 7 5 4-1 6 3 5v5l-2 3-1 17-5 5 1 6-9 10-14 14-4 3h-34l-19-19-1-5v-6l-2-3h-5l-4 5-1 18-5 6-4 4h-85l-9-9-1-7-4-3v-25l5-6 4-8 6-6v-155l-13-19-4-7-4-11v-14l5-10 2-7 9-9 13-8 5-5 7-5 7 1 4-3h11l9 4 4 4h5l2 2 5-1 8-5 8-3zm11 16-15 4-15 8-16 10h-3l-1-2h-2v3l-8-7-7-7-3-1h-10l-11 7-14 10-5 4-4 10v13l4 8 9 9 7 9v105l-1 64-4 8-5 6-6 10v7l4 8 7 8 2 1h12l8-1h25l11 1 7-3 2-4v-12l-4-10-8-11-3-5-1-6 1-48 2-6 6 1 10 13 10 15 12 19 8 16 11 26 8 10 6 4 9 1 10-5 13-13 6-12 2-8v-15l-3-8-2-2-15 1-18-27-11-17-15-23-4-7v-5l4-1 14-12 8-8 10-14 9-19 4-20v-30l-3-16-6-18-9-10-8-5-5-1z" fill="#F59145"/>
<path transform="translate(1656,509)" d="m0 0h20l12 5 8 7 7 10 6 7 3 9 2 3v29l-5 8-5 5v5l-14 14-9-1-3 2h-10l-3-2h-11l-4 1-1 4-1 165-2 2 1 8 2 4v11l2 2 1 10 4 6 1 9 5 4-1 38-4 2-1 8-4 6-5 4-9 4h-81l-5-4-6-5-5-8-3-9-3-4 2-5 1-4-1-7 3-5v-7l7-13 6-4h2l2-6 3-5 1-6v-141l-1-20h-6l-8 5-1 1h-33l-11-8-7-8-3-8-4-5-5-13v-12l2-7 3-5v-10l3-3 6-4 4-7 7-4 16-5 1-1h18l2-2h44l1-3 4-1 4 1 5-5 5-1 2-4 10-7 10-10 6 1 2-4 5-2 10-3zm3 17-13 4-12 7-13 11-11 8-12 5-11 2-44 1-15 2-12 5-10 9-5 8-2 6v14l5 12 8 11 8 6 3 1h10l8-4 9-10 7-12 7-9 9-1 2 7 1 42v147l-1 18-3 7-8 11-7 10-3 7-1 7v9l3 8 7 8 5 2 10-1 20-3h11l14 2h9l5-2 4-5 4-10 1-5v-19l-5-14-6-12-2-9-1-88v-40l1-87 4-8 2-2h7l11 7 8 6 6 3h6l8-5 7-8 5-8 2-8v-8l-2-10-5-10-9-10-7-4-5-1z" fill="#F59144"/>
<path transform="translate(1311,2)" d="m0 0 5 1 3-1 4 2 4 7v2l3 1 1 4-1 2 3 5 4 5-2 1 2 6 5 5-1 7 6 7 1 6 2 2v3l2 1v5l5 5v7l4 2 2 4-1 5 5 5 1 7 5 4-1 5 3 5 3 3v6l5 4 1 4-1 8 1 4 4 2 3 4 3 6v6l10 14 4 6 4 4 12 1 1 2v8l-1 1h-92l-5-8v-3l21-1 7-7 1-4-6-16-5-9v-7l-5-4-4-4-5 1-4-3h-15l-4 3h-15l-3-3h-20l-4 3h-7l-3 9-4 7v7l-3 3 1 6 7 13 6 5 16 1 2 1-1 6-3 4h-72l-1-1v-9l1-1 12-1 6-9 7-8 4-6 1-5v-3l3-3h2v-7l5-6 1-6 5-9-1-6 6-5v-6l5-5v-6l4-4 2-9 5-5-1-6 6-6v-5l-1-3 6-5 1-7 3-3h2l-1-8 5-6 3-9 7-11 1-6v-3h2l1-3zm-13 55-5 5-1 6-3 1-2 7v4l-2 4-2 2-1 4-6 7 2 5v2l-4 2-3 8-2 5 1 6 2 3 21 1h26l9-1 2-3v-11l-5-9-3-7-4-10-3-5-4-10-3-8h-2v-3h-2l-1-4z" fill="#F59246"/>
<path transform="translate(1433,572)" d="m0 0h16l10 4 8 9 5 10 1 14-3 5v7l3 4-2 5-3 3-1 7-4 3-1 7-3 3h-2v168l5 5 1 7 8 7 7 20-1 8-9 18-3 7-4 2-1 2-3 1h-40v2l-26 1-12-3-12-8-1-7-4-3v-31l9-17 1-8 2-3v-158l-6-8v-2l-4-2-4-5-4-8v-28l4-14 6-7 5-6 9-5 39-1 7-3zm4 16-13 4-14 2-27 1-6 5-4 9v24l3 8 9 9 5 6v174l-10 21-2 7v14l6 9 5 4 9 2 17-2 32-1 6-3 5-8 2-7v-7l-4-10-8-12-6-10-1-6v-166l3-11 9-14 3-12v-19l-3-7-4-3-4-1z" fill="#F59143"/>
<path transform="translate(714,5)" d="m0 0h13l7 3 3-1 5 3-1 4-4 5h-17l-8 4-2 5 2 7 4 3-1 5 6 7v7l3 1 2 5 2 7 3 5v5l1 3 4 2 2 9 4 6v9l4 2 1 4v4l4 2 2 4-1 5 5 5 3 7 3 4v2l8 1 2-9 4-7v-7l5-6 3-9 3-5v-7l5-6 3-5 2-3v-6l5-9 2-10 4-8 2-9 3-5-1-7-1-1-1-7-2-1h-14l-11-5-1-1v-6l5-5h6l3 2 65 1v10l-8 1-3 3-7-1-7 6-1 3 1 4-5 6-6 13v7l-4 5-3 8-5 8-6 17-6 15-5 9-3 4 1 4-5 9-3 9-3 1-1 7-1 3h-2v4h-2l1 8-3 3h-2l-1 7-5 14-6 11-7 5-5-1-3-2-5-1-4-11-1-7h-2l-3-5-4-10-3-6-1-8-3-2-3-9-3-6-1-4-1-5-1-3h-2l-1-6-4-2v-2h-2l1-5-7-15-5-15-3-3-3-9-3-8-3-5-4-9-4-5 1-7-8-12-6-6h-6l-8-4-7-7v-3l74-1z" fill="#F59246"/>
<path transform="translate(1172,4)" d="m0 0 3 3 44 1 1 1-1 9-3 3-15 1-3 8-6 11-9 17 1 5-4 4h-2v7l-5 5v8l-5 5v7l-10 20-3 8-3 3v6l-4 7-2 5-5 9 1 6-1 2h-2v2l-3 2v6l-5 4v8l-5 5v8l-10 10-5 1-8-3-5-8v-7l-4-1-2-4 1-4-4-9v-2l-2-1 1-2-4-2v-2h-2l1-6-3-5v-6l-4-2-4-8v-6l-4-2-2-4 1-3-5-10-1-7h-2l-3-6-2-6-3-6v-8l-3-1-4-8-5-15-3-3-2-7-4-4v-7l-5-7-1-6-2-1-14-1-8-5-2-4 1-4h100v8l-4 5-5-1-7-1-13 5 3 8 1 7 8 16 2 5-1 2 3 5 4 5-2 3 3 5 3 3 2 6 4 9 4 12 6 11 1 2h-2l3 7 4 5 6 16 6 1 2-5 5-11 1-6 7-14 10-26 6-16 4-9 3-4v-8l5-8v-16l-4-7h-10l-5-3-8-1-3-4-1-4 1-2 29-1z" fill="#F59245"/>
<path transform="translate(107,397)" d="m0 0h11l9 5 12 10 14 10 14 9 25 13 23 11 25 12 38 19 11 7 11 9 8 10 7 14 3 11 2 14v17l-3 12-5 8-6 3-10-1-10-6-12-11-9-9-7-8-7-7-7-8-11-12-9-10-8-5-4-1h-14l-6 4-2 6-2 239v21l2 11 8 10 10 8 10 4 5 1h18l12-3 14-8 11-9 7-7 10-14 8-13h3l10 11 9 13 7 15 3 19v9l-4 17-5 12-6 9-8 9-10 7-12 5-13 3-8 1h-25l-22-3-20-3-29-2h-66l-8-2-8-4-7-7-5-10-2-11v-17l2-13 4-10 9-10 5-6 1-20 1-169v-106l-3-8-11-12-7-8-3-7-1-5v-26l4-11 6-10 10-10 10-5zm1 6-10 6-10 10-6 10-2 7v22l2 9 9 10 9 11 4 7 1 4 1 129v41l-1 115-1 12-3 5-9 7-5 8-3 12v27l3 10 7 9 8 4 6 1h59l25 1 42 6 10 1h29l15-3 14-7 10-9 6-7 7-15 3-13v-18l-3-15-7-13-11-15h-2l-6 10-7 9-9 10-13 10-15 8-9 3-7 1h-15l-13-3-11-7-10-9-4-5-3-7-1-6v-121l2-141 2-9 5-5 8-3h10l9 2 6 3 10 9 13 13 7 8 12 13 9 10 13 13 9 6 8 1 5-5 3-7 1-4v-19l-3-15-4-12-8-12-9-10-17-10-30-15-19-10-47-23-16-8-18-12-20-15-8-5z" fill="#FDFCFA"/>
<path transform="translate(1953,396)" d="m0 0h17l12 6 8 8 6 12 5 19 1 11v23l-2 11-5 13-7 8-5 3-5 1h-11l-8-4-6-8-5-8-2-1-3 10-27 81-12 35-4 17-1 9v158l3 12 10 19 5 17 1 15-2 11-5 9-8 8-6 3h-7l-17-6-8-3h-8l-12 5-11 5h-10l-8-4-7-7-4-11-3-12v-12l4-16 5-9 5-8 4-12 1-11v-146l-3-21-5-19-9-24-8-16-5-7-5-2-2 17-4 10-6 6-3 1h-10l-8-4-11-11-5-10-3-19v-14l2-13 6-12 6-7 24-12 10-10 6-4 3-1h12l7 3 7 7 12 21 9 16 14 24 8 15v2h2l3-9 12-35 10-32 7-19 10-31 5-10 8-10 8-8 13-8zm7 5-11 2-16 8-12 11-7 10-6 14-17 52-14 41-12 35-1 5-3-3-9-16-15-28-8-14-12-22-7-10-6-5-9-1-8 4-7 7-11 7-14 7-7 7-6 12-1 4v25l3 14 7 11 9 7 5 2 6-1 4-5 3-10 2-13 1-4 8-1 8 4 7 10 8 18 12 36 3 16 1 9v149l-3 15-5 12-8 13-3 9v20l6 18 7 6 2 1h9l12-5 7-4 5-1h9l14 5 11 5 5-1 6-4 7-8 3-9v-12l-4-16-6-15-5-8-4-13-1-9v-144l3-24 6-22 10-29 14-41 12-36 5-12 3-3 6 1 6 9 7 10 4 2 8 1 8-4 7-9 4-11 1-6v-23l-3-19-4-13-6-10-7-6-7-3z" fill="#FDFCFA"/>
<path transform="translate(875,8)" d="m0 0h106l2 3v4l-9 3-6 1h-9l-6 4-1 44v116l2 7 3 3 23 1 1 5v5l-1 1h-101l-4-5v-5l1-1 26-1 4-9v-11l3-1v-125l-2-3-1-21-12-4-16-1-3-5z" fill="#F59245"/>
<path transform="translate(1034,593)" d="m0 0h33l16 8 8 7 6 5 6 4 8 16 4 5 1 3-1 5 5 10v18l-2 1v8l-3 4v7l-7 13-6 7-3 6 11 12 12 12 8 16 1 19 2 2v27l-2 2v10l-1 12-4 6v7l-5 6-3 10-8 10-3 6-10 9-15 8h-2v-2l-9 5-4 1h-33l-5-3-1-1h-7l-15-6-6 2-9 4h-3l-5 5-6-1-11 1-1 1-12-1-9-4-12-12-5-11-2-7v-7l4-11 1-4 1-5 7-6 6-9 1-1 1-129-15-22-3-9-3-5v-28l4-7 4-6 11-8 5-3 3-2 8 1 6-6h6l2-2h10l5 3 7-1 4 3v2l5 1 8-1h8l2-4 5-1 3-1zm15 10-10 2-11 5-14 6h-11l-16-9-9-1-10 4-11 4-12 6-7 8-3 7v17l4 12 6 11 8 10 1 2v140l-4 6-10 14-3 7v15l5 10 9 8 7 3 8 1 10-2 12-5 10-4 10-1 17 4 18 5h19l16-4 12-6 12-11 7-10 6-14 5-15 3-14 1-11v-25l-2-9-8-17-10-13-7-7-14-9h-2v-2l4-2 7-7 9-13 5-11 2-11v-23l-4-13-8-15-9-10-11-7-9-4-12-2z" fill="#F59348"/>
<path transform="translate(379,513)" d="m0 0h9l12 6 13 8 16 5 20 3 19 3 12 4 15 8 10 8 8 11 4 8 1 3v19l-4 8-6 5h-16l-10-6-16-15-12-12-2-1v-2l-4-2-7-6-7-1-1 1-1 95 5-5 8-6 7-1 9 7 13 11 3 6v56l-3 6-6 3-5 1h-11l-6-3-7-8-5-10-1-3-1 108 2 1-1 1v12l2 4 9-1 20-12 13-9 8-5 10-4 5-1h7l10 3 9 7 5 8 4 13 1 6v14l-3 10-6 9-5 6-10 6h-24l-25-1h-39l-25 3h-16l-10-3-6-4-7-8-3-9v-14l4-12 4-6 4-4 5-1-1-230-1-31-10-14-3-10v-17l3-8 7-6zm3 6-9 4-7 6-1 3v16l3 9 6 8 5 6v265l-5 2-5 6-5 11-1 5v10l3 9 5 5 5 3 4 1h23l21-2h47l30 2h7l7-4 8-8 6-12 1-5v-14l-4-12-6-9-7-5-6-2-9 1-12 5-14 9-18 12-8 4-3 1h-11l-4-4-2-8v-101l1-29h6l8 13 6 10 5 5 8 1 8-3 3-4 1-35v-17l-3-5-7-7-12-9-5 3-8 8-2 1h-6l-2-5-1-9v-81l3-9 3-3h8l9 5 8 8 8 7 19 19 10 6 8 1 6-3 4-6 1-8-2-11-6-11-7-8-11-8-13-6-12-3-38-6-16-6-19-11z" fill="#FDFCFA"/>
<path transform="translate(1262,588)" d="m0 0h21l11 4 7 5 9 13 4 9 5 24v27l-2 19-5 15-9 16-11 13-14 14-6 4 1 4 7 12 22 34 12 19 15 1 5 2 3 8 1 6v17l-5 14-7 10-9 9-10 6-10 2-8-2-6-4-5-5-7-10-10-24-13-24-18-27-5-6-1 37 2 12 9 15 4 8 1 4v12l-5 10-6 3-43 1h-18l-9-6-7-9-2-5v-13l5-9 9-11 1-9v-162l-13-12-5-8-1-3v-17l4-10 8-8 11-7 9-7 11-4 8 1 6 3 11 10 10-3 21-12 13-5zm4 6-15 4-15 8-16 10h-3l-1-2h-2v3l-8-7-7-7-3-1h-10l-11 7-14 10-5 4-4 10v13l4 8 9 9 7 9v105l-1 64-4 8-5 6-6 10v7l4 8 7 8 2 1h12l8-1h25l11 1 7-3 2-4v-12l-4-10-8-11-3-5-1-6 1-48 2-6 6 1 10 13 10 15 12 19 8 16 11 26 8 10 6 4 9 1 10-5 13-13 6-12 2-8v-15l-3-8-2-2-15 1-18-27-11-17-15-23-4-7v-5l4-1 14-12 8-8 10-14 9-19 4-20v-30l-3-16-6-18-9-10-8-5-5-1z" fill="#FDFCFA"/>
<path transform="translate(1661,520)" d="m0 0h11l10 4 11 8 7 12 4 13v17l-7 14-8 9-8 5-10 1-10-4-14-10-4-1-4 3v213l3 12 8 20 2 9v18l-5 14-6 8-5 3h-15l-8-1h-22l-13 2h-14l-6-3-6-7-4-9-1-13 3-12 6-10 11-14 2-6v-207l-5 4-12 19-9 8-8 4h-14l-10-5-7-7-9-16-3-10 1-11 5-12 8-10 8-6 13-5 9-2 50-1 11-2 13-7 13-11 10-8 14-7zm-2 6-13 4-12 7-13 11-11 8-12 5-11 2-44 1-15 2-12 5-10 9-5 8-2 6v14l5 12 8 11 8 6 3 1h10l8-4 9-10 7-12 7-9 9-1 2 7 1 42v147l-1 18-3 7-8 11-7 10-3 7-1 7v9l3 8 7 8 5 2 10-1 20-3h11l14 2h9l5-2 4-5 4-10 1-5v-19l-5-14-6-12-2-9-1-88v-40l1-87 4-8 2-2h7l11 7 8 6 6 3h6l8-5 7-8 5-8 2-8v-8l-2-10-5-10-9-10-7-4-5-1z" fill="#FDFCFA"/>
<path transform="translate(757,589)" d="m0 0h10l30 10 5 1h53l15 2 10 5 9 7 6 7 5 9 1 4v13l-4 9-6 7-11 4-12-2-14-6-19-12-11-7-4-1v55l14-7 4 1 9 6 6 8 5 12 2 15v26l-3 10-7 8-9 4h-7l-10-5-3-3v60l2 4 2 1h7l10-6 10-9 15-10 7-3 9-1 9 3 10 9 4 7 3 9 1 8v16l-4 13-6 8-7 6-12 4h-24l-32-2h-14l-25 2h-21l-10-5-4-5-4-10-1-5v-8l4-13 8-11 5-6v-180l-10-11-6-12-1-3v-13l4-10 5-6zm3 5-5 4-3 10v9l3 9 10 13 4 5 1 124-1 56-2 5-7 7-6 9-2 7v11l3 11 5 6 7 3h16l16-2h43l23 2h13l10-3 9-7 5-8 2-7v-19l-3-12-8-11-8-5h-8l-14 7-17 14-10 7-8 1-9-3-3-4-1-4v-71h5l12 12 2 1h7l6-3 5-6 1-3v-40l-4-12-6-9-5-4-8 1-12 6-1-3-2 1v-61l3-4 9 1 16 10 13 8 13 6 7 2h8l8-7 3-8v-12l-6-12-9-9-10-5-9-2h-55l-14-3-27-9z" fill="#FDFCFA"/>
<path transform="translate(572,569)" d="m0 0 9 1 10 9 5 3 4 1h7l17-4h9l10 4 7 7 3 8v13l-4 12-6 10-10 11-1 13v184l1 1h8l10-3 9-7 11-12 9-6 10-3h9l9 3 8 7 3 6 1 6v25l-2 14-4 8-5 6-8 4-13 2h-18l-21-3-22-3h-27l-21 4-9-1-7-4-6-7-3-9 1-9 5-10 7-8 3-2 1-7v-185l-3-9-9-11-7-9-2-7v-19l4-11 8-9zm-1 6-9 6-5 8-2 6v15l4 9 7 8 6 7 4 9 1 4 1 26v161l-1 9-8 6-6 7-2 7v7l4 8 6 4 8 1 21-3h31l29 5 9 1h23l10-3 8-7 3-10 1-17v-16l-3-9-8-6-3-1h-12l-8 4-10 9-6 7-10 7-12 4h-9l-5-2-2-4v-197l6-9 8-11 6-12 1-4v-9l-3-8-7-6-5-2h-8l-14 4h-11l-9-3-12-10z" fill="#FDFCFA"/>
<path transform="translate(1049,603)" d="m0 0 14 1 11 4 12 7 8 8 6 10 7 16 1 5v23l-2 11-8 16-9 11-6 6h-2v2l5 2 12 8 8 8 9 13 7 15 2 9v25l-2 17-5 18-8 19-8 11-11 10-12 6-16 4h-19l-25-7-10-2-10 1-24 10-9 1-10-2-9-6-6-7-3-7v-15l6-12 10-13 1-2v-140l-4-6-8-11-5-11-2-7v-17l5-10 8-7 9-4 11-4 10-4 9 1 11 6 5 3h11l14-6 11-5zm-2 6-13 4-17 8-5 1h-9l-12-6-7-4h-7l-13 6-13 5-7 6-3 7v15l4 10 7 12 7 9 2 8v129l-1 11-4 6-7 7-6 12v14l6 9 9 6 4 1h7l12-4 13-6 9-2 12 1 12 3 15 5 13 1 17-3 12-6 9-7 7-8 8-16 6-18 3-16 1-12v-14l-3-15-8-16-11-12-11-9-9-6h-2l2-6 10-10 10-14 5-12 2-9v-16l-3-12-9-17-12-12-12-6-9-2z" fill="#FDFCFA"/>
<path transform="translate(1433,583)" d="m0 0h15l8 4 5 8 1 4v23l-3 12-8 10-3 7v174l5 9 6 8 6 11 1 4v8l-4 13-6 9-6 3-33 1-11 1h-14l-8-3-8-7-4-9-1-6v-9l3-10 7-13 2-4v-175l-14-14-3-12v-13l3-14 5-8 5-4 5-2 28-1zm4 5-13 4-14 2-27 1-6 5-4 9v24l3 8 9 9 5 6v174l-10 21-2 7v14l6 9 5 4 9 2 17-2 32-1 6-3 5-8 2-7v-7l-4-10-8-12-6-10-1-6v-166l3-11 9-14 3-12v-19l-3-7-4-3-4-1z" fill="#FDFCFC"/>
<path transform="translate(1018,739)" d="m0 0 11 1 14 7 9 7 8 9 8 15 3 14v17l-3 11-6 10-7 6-10 5-13 2-10-2-7-4-6-7-3-10v-70l2-7 5-3zm11 20-7 4-2 3v8l2 2v16l1 32 7 1h13l5-3 4-5 5-13v-6l-2-3-1-10-2-2-1-9-6-3-4-5-5-5-4-2z" fill="#F59246"/>
<path transform="translate(1235,628)" d="m0 0h15l6 3 5 6 5 12 1 16-2 15-5 16-6 12-10 13-8 7-15 10-4-1v-82l1-18 11-7zm2 18-4 3v47l1 2h7l6-12-1-6 4-11 1-3v-14l-6-6z" fill="#F59144"/>
<path transform="translate(1262,588)" d="m0 0h21l11 4 7 5 9 13 4 9 5 24v27l-2 19-5 15-9 16-11 13-14 14-6 4 1 4 1 7v3l-3 1-8-13 1-5 7-4 17-16 9-12 9-17 4-13 2-12v-30l-3-16-6-18-9-10-7-4-5-1h-16l-15 4-15 8-16 10-4-1v-2h-2v3l-4-2-11-11-3-1h-10l-11 7-14 10-5 5-3 8v13l4 8 9 9 7 9v105l-1 39h-1v-56l-1 4 1 1v8h-2l-1 28-1 5-2-4v-131l-13-12-5-8-1-3v-17l4-10 8-8 11-7 9-7 11-4 8 1 6 3 11 10 10-3 21-12 13-5z" fill="#FDFCFA"/>
<path transform="translate(1818,607)" d="m0 0 3 1 5 17 3 21v149l-3 15-5 12-8 13-3 9v20l6 18 6 5 2 1h9l12-5 7-4 5-1h9l14 5 11 5 5-1 6-4 6-7 3-9v-12l-4-16-6-15-5-8-4-13v-47l1-11 2-4 1-12h1l1 67 4 16 10 19 5 17 1 15-2 11-5 9-8 8-6 3h-7l-17-6-8-3h-8l-12 5-11 5h-10l-8-4-7-7-4-11-3-12v-12l4-16 5-9 5-8 3-8h2l1-4 2-2-1-20v-142l-2-8-3-21z" fill="#FDFCFA"/>
<path transform="translate(1032,637)" d="m0 0 12 1 7 3 8 6 5 6 3 7v16l-5 13-9 12-7 5-16 6-17 3h-6l-1-17v-46l1-9 10-4zm-4 14-5 2-1 4v14l-2 2v7l2 2 1 9 2 2h10l5-4 6-4 5-11 1-9-4-6-7-7-3-1z" fill="#F59043"/>
<path transform="translate(572,569)" d="m0 0 9 1 10 9 5 3 4 1h7l17-4h9l10 4 7 7 3 8v13l-4 12-6 10-10 11-1 13v122l-2-2-1 1-1 10v9l1 5v7l-2 4-1 8h-1v-176l6-9 8-11 6-12 1-4v-9l-3-8-6-5-5-2h-8l-14 4h-11l-9-3-12-10h-7l-9 6-5 9-1 4v15l4 9 7 8 6 7 4 9v2l-3 3-1 55h-1l-1-55-3-9-9-11-7-9-2-7v-19l4-11 8-9z" fill="#FDFCFB"/>
<path transform="translate(1458,608)" d="m0 0 2 1 1 5v14l-4 9-6 7-3 7v174l5 9 6 8 6 11 1 4v8l-4 13-6 9-6 3-33 1-11 1h-14l-8-3-5-4-1-9h-2l1-6 9 12 5 3 7 1 17-2 32-1 6-2 2-5 3-6 1-4v-7l-4-10-8-12-6-10-1-6v-166l3-11 9-14 4-14z" fill="#FDFCFA"/>
<path transform="translate(1103,669)" d="m0 0 4 1v15l-5 12-7 11-11 12-3 1v2l5 2 12 8 8 8 9 13 7 15 2 9v25l-2 17-5 18-8 19-8 11-11 10-12 6-16 4h-19l-25-7-10-2-10 1-24 10-9 1-10-2-7-4 3-6 7 4 4 1h7l12-4 13-6 9-2 12 1 12 3 15 5 13 1 17-3 12-6 9-7 6-7 8-16 6-18 3-16 1-12v-14l-3-15-8-16-11-12-10-8-11-7v-5l11-11 10-14 5-12z" fill="#FDFCFA"/>
<path transform="translate(107,397)" d="m0 0h11l9 5 12 10 14 10 14 9 25 13 23 11 25 12 38 19 11 7 11 9 8 10-2 1-9-3-7-8-17-10-30-15-19-10-47-23-16-8-18-12-20-15-8-5h-7l-10 6-9 9-6 10-2 7v22l2 9 9 10 9 11 4 7v6l-1-2-5 1-3-8-11-12-7-8-3-7-1-5v-26l4-11 6-10 10-10 10-5z" fill="#FDFCFB"/>
<path transform="translate(379,513)" d="m0 0h9l12 6 13 8 16 5 20 3 19 3 12 4 15 8 10 8 8 11 4 8 1 3v19l-4 8-6 5h-16l-10-6-16-15-12-12-2-1v-2l-4-2-7-6-7-1-2 3-1 40h-1l-2-16 1-10-2-10v-8l5-6h8l9 5 8 8 8 7 19 19 10 6 8 1 6-3 3-5 1-8-2-11-6-11-6-7-11-8-13-6-12-3-38-6-16-6-19-11-7-1-9 4-6 5-1 3v16l3 9 6 8 1 3-6 2-8-11-3-10v-17l3-8 7-6z" fill="#FDFCFB"/>
<path transform="translate(896,624)" d="m0 0 3 4 2 6v13l-4 9-6 7-11 4-12-2-14-6-19-12-11-7-4-1v55l14-7 4 1 9 6 6 8 5 12 2 15v26l-3 10-7 8-9 4h-7l-10-5-3-3-1 57h-1l-1-34h-2l-1 14h-1v-48l4-1 4 2 10 10 2 1h7l6-3 4-5 1-3v-40l-4-12-6-9-4-3-8 1-12 6-3-1v-1h-1v-62l4-5 9 1 16 10 13 8 13 6 7 2h8l7-6 3-8v-12l-1-5z" fill="#FDFCFA"/>
<path transform="translate(187,621)" d="m0 0h1v162l2 11 8 10 10 8 10 4 5 1h18l12-3 14-8 11-9 7-7 10-14 8-13h3l10 11 9 13 3 7-3-1v-2h-2l-4-6h-2v-2h-3l-7-10-2-1-2 6-9 12-11 12-13 10-15 8-9 3-7 1h-15l-13-3-11-7-10-9-5-6-3-7v-119l1-41h2v-6h1z" fill="#FDFCFB"/>
<path transform="translate(1570,610)" d="m0 0h1l1 165h3l1-124h1v147l-1 18-3 7-8 11-7 10-3 7-1 7v9l3 8 6 7 5 2 10-1 20-3h11l14 2h9l5-2 5-8 3-11v-19l-5-14-6-12-1-9 1 4 6-1 6 16 4 10 2 9v18l-5 14-6 8-5 3h-15l-8-1h-22l-13 2h-14l-6-3-6-7-4-9-1-13 3-12 6-10 11-14 2-6z" fill="#FDFBF9"/>
<path transform="translate(426,568)" d="m0 0h1l3 16-1 13 1 3 1-30h1v93l5-5 8-6 7-1 9 7 13 11 3 6v56l-3 6-6 3-5 1h-11l-6-3-7-8-5-10-1-3-1 105h-1v-96l-3 1-1 5h-1v-25l1-1h6l6 9 8 14 5 5 8 1 8-3 2-3 1-35v-17l-3-5-11-10-7-5-5 3-8 8-2 1h-6l-3-6-1-9v-81z" fill="#FDFCFA"/>
<path transform="translate(1018,739)" d="m0 0 11 1 14 7 9 7 8 9 8 15 3 14v17l-3 11-6 10-7 6-10 5-13 2-10-2-7-4-6-7-3-10v-70l2-7 5-3zm0 6-5 3v73l4 9 6 5 5 2h9l10-3 6-4 7-7 4-11v-23l-4-13-6-11-9-9-10-7-13-4z" fill="#FDFCFA"/>
<path transform="translate(373,568)" d="m0 0 5 1 2 2v265l-6 2-2-4h2l-1-230-1-31-1-3z" fill="#FEF9F1"/>
<path transform="translate(1189,595)" d="m0 0 8 1 6 3 11 10 2 2-2 6-4-2-11-11-3-1h-10l-11 7-14 10-5 5-3 8v13l4 8 9 9 7 9v105l-1 39h-1v-56l-1 4 1 1v8h-2l-1 28-1 5-2-4v-131l-13-12-5-8-1-3v-17l4-10 8-8 11-7 9-7z" fill="#FDFCFA"/>
<path transform="translate(1235,628)" d="m0 0h15l6 3 5 6 5 12 1 16-2 15-5 16-6 12-10 13-8 7-15 10-4-1v-82l1-18 11-7zm3 6-10 4-4 3-1 14v30l1 44 4-2 13-11 7-10 7-14 4-15 1-7v-18l-4-11-4-5-3-2z" fill="#FDFCFA"/>
<path transform="translate(1032,637)" d="m0 0 12 1 7 3 8 6 5 6 3 7v16l-5 13-9 12-7 5-16 6-17 3h-6l-1-17v-46l1-9 10-4zm-8 7-11 4-1 3 1 47h-4v2l4-1v8l1 1 11-1 13-4 9-6 8-9 5-10 1-4v-10l-4-10-8-7-9-3z" fill="#FDFCFA"/>
<path transform="translate(102,499)" d="m0 0h4v104l-1 35-2-1-1 8v30l1 36-1 16-1 43-1 5h-1v-169l1-106z" fill="#FFF9F1"/>
<path transform="translate(824,519)" d="m0 0h19l55 3 46 2 53 1h44v1l-50 2-3 2 19 1v1h-43l-49-2-57-3-13-2-18-2-3-3z" fill="#FDFCFA"/>
<path transform="translate(1570,603)" d="m0 0 4 1 2 5v166l-2 2-3-2z" fill="#FDFCFC"/>
<path transform="translate(1262,588)" d="m0 0h21l11 4 7 5 9 13 3 6-1 2-3 1-2 2-4-11-9-10-7-4-5-1h-16l-15 4-15 8-16 10-4-1v-2l-2-1 2-4 12-5 13-8 14-6z" fill="#FDFCFA"/>
<path transform="translate(1167,671)" d="m0 0h1l1 9v18l2 5 1-10h1v84l-1 39h-1v-56l-1 4 1 1v8h-2l-1 28-1 5-2-4 1-130z" fill="#FEF9F1"/>
<path transform="translate(1433,583)" d="m0 0h15l8 4 5 8 1 4v23h-1l-2-13-2 7h-1l-1-17-3-7-7-3h-8l-13 4-14 2-27 1-5 4-3 6-1-2-4 1-1 2 1-6 4-6 5-4 5-2 28-1z" fill="#FDFCFA"/>
<path transform="translate(1791,475)" d="m0 0h12l7 3 7 7 11 19v3h-2v-2l-4-2-3-6v-2l-4-1-7-9-4-3-9-1-8 4-7 7-11 7-14 7-8 9-3 3-1-3h-2v-5l7-8 24-12 10-10 6-4z" fill="#FDFCFB"/>
<path transform="translate(625,645)" d="m0 0h1l1 23v46l2 9 1 1 1-53h1v108l-2-2-1 1-1 10v9l1 5v7l-2 4-1 8h-1z" fill="#FEF9F1"/>
<path transform="translate(1897,646)" d="m0 0h1v150h-1l-1-55-2 4-1 11-1 38h-1v-144h1l1 36 1 5 2-1z" fill="#FEF9F1"/>
<path transform="translate(1570,610)" d="m0 0h1l1 165h3l1-124h1v147l-1 18-2-3h-3l-1 6-1-4z" fill="#FFF9F1"/>
<path transform="translate(188,555)" d="m0 0h1v76l-3-3-1 4h-2v41l-1 113h-1v-121l1-80 1-9 2 4 2 22v-15l-1-29z" fill="#FFF9F1"/>
<path transform="translate(1574,812)" d="m0 0h1v8l-7 10-10 14-3 7-1 7v9l3 8 6 7 6 3 4 4h-9l-6-3-6-7-4-9-1-13 3-12 6-10 11-14 1-2h2l1-6z" fill="#FDFCFA"/>
<path transform="translate(426,568)" d="m0 0h1l3 16-1 13 1 3 1-30h1v90h-1l-1-18h-2v14l-1 7h-1l-1-9v-81z" fill="#FEF9F1"/>
<path transform="translate(1804,581)" d="m0 0 5 3 6 8 4 10 1 5-1 4 3 21 2 10v142l1 18-3 3-2 3 1-15v-146l-3-21-5-19-9-24z" fill="#FFF9F1"/>
<path transform="translate(1171,753)" d="m0 0h1v88l-4 8-7-2 3-5 1-9 1-27 1-5 1-20 1-8h2l-1-8-1-4 1-1z" fill="#FFF9F1"/>
<path transform="translate(104,504)" d="m0 0h1l1 7v48l-1 28h-1l-2-22-1-8v-49z" fill="#FDFCFC"/>
<path transform="translate(1384,657)" d="m0 0h1l1 116 1 26 1 27-2 5v5l-7 4 2-5 2-4z" fill="#FEF9F1"/>
<path transform="translate(1895,469)" d="m0 0h5l-1 7-12 36-2 4-2-4v-13l10-28z" fill="#FDFCFA"/>
<path transform="translate(1108,496)" d="m0 0h17v1l-10 1-6-1v2h23l10-2h11l6-1 11 1v1l-47 4-65 4h-23v-1l51-3 13-1v-2l-8-1v-1z" fill="#FFF9F1"/>
<path transform="translate(1785,552)" d="m0 0 7 1 6 4 7 10 8 18 2 7-10-10-2-1-8-16-4-5-8-3v-4z" fill="#FDFCFB"/>
<path transform="translate(1412,588)" d="m0 0h5l-4 1-1 4-2 2-27 1-5 4-3 6-1-2-4 1-1 2 1-6 4-6 5-4 5-2z" fill="#FEF9F1"/>
<path transform="translate(1774,488)" d="m0 0 2 1 1 5-10 6-12 6-8 9-3 3-1-3h-2v-5l7-8 24-12z" fill="#FDFCFB"/>
<path transform="translate(427,706)" d="m0 0h6l4 5v2h-2l-2 4-1 105h-1v-96l-3 1-1 5h-1v-25z" fill="#FFF9F1"/>
<path transform="translate(188,528)" d="m0 0h1v27l-2 3 1 33v13l-2-2-1-14-1-10-1-2v-28l2-15 1-2h2z" fill="#FDFCFC"/>
<path transform="translate(1235,826)" d="m0 0h2l9 17 12 24-5 2-2 1-5-14-7-12-4-6z" fill="#FDFCFA"/>
<path transform="translate(944,525)" d="m0 0h97v1l-50 2-3 2 19 1v1h-43l-31-1v-2h21l11 1h16l-2-3-35-1z" fill="#FEF9F1"/>
<path transform="translate(955,689)" d="m0 0h1l2 34v38l-1 15-1 50h-1z" fill="#FFF9F1"/>
<path transform="translate(1941,486)" d="m0 0 2 3 2 5-9 27h-2l-6 7-2 2 2-9 11-31z" fill="#FEF9F1"/>
<path transform="translate(560,622)" d="m0 0 4 2 7 7 6 12v2l-3 3-1 55h-1l-1-55-3-9-9-11-3-4z" fill="#FDFBF9"/>
<path transform="translate(1598,880)" d="m0 0h11l2 3 3 2 5 1v1h-28l-13 2-7-1-2-3 20-4z" fill="#FEF9F2"/>
<path transform="translate(1804,581)" d="m0 0 5 3 6 8 4 10 1 5-1 4 3 21v6l-2-1-5-24-10-28z" fill="#FFF9F1"/>
<path transform="translate(815,757)" d="m0 0 3 1-2 2v8h2l1-2 2 1-1 59h-1l-1-34h-2l-1 14h-1v-48z" fill="#FEF9F2"/>
<path transform="translate(1101,527)" d="m0 0 16 1h43v1l-71 3h-73v-1l53-1 22-1z" fill="#FFF9F1"/>
<path transform="translate(1093,633)" d="m0 0h2v2h4l1-2 7 16 1 5v23h-1v-7l-4-1-2-16-4-11z" fill="#FEF9F3"/>
<path transform="translate(818,651)" d="m0 0h1l1 45-5 4h-1v-20l1-21z" fill="#FDFCFC"/>
<path transform="translate(945,620)" d="m0 0 4 4-6 9-1 3-1 13h-2l-1 7h-2l-1-4v-17l5-10z" fill="#FEF9F2"/>
<path transform="translate(816,635)" d="m0 0 3 2 1 4v48h-1l-1-34-2 4-1 21h-1v-42z" fill="#FEF9F1"/>
<path transform="translate(1740,512)" d="m0 0 1 3h2l2 4-2 5h-2l-2 10-1 1-1 10-1 4h2l-1 6-2 2-1-9v-14l2-13z" fill="#FEF9F1"/>
<path transform="translate(1171,753)" d="m0 0h1v23l-1 41h-2l-2-3v-13l1-20 1-8h2l-1-8-1-4 1-1z" fill="#FDFDFD"/>
<path transform="translate(1791,475)" d="m0 0 5 1-1 5-8 4-7 7-3 1-2-5 6-7 7-5z" fill="#FDFBF9"/>
<path transform="translate(1903,442)" d="m0 0h1l1 10 1 3-5 15h-7l3-11 5-16z" fill="#FEF9F1"/>
<path transform="translate(729,833)" d="m0 0 2 2 2 6 7-3-2 6-2 5-1 14 1 4-6-1v-22z" fill="#FDFBF8"/>
<path transform="translate(1455,587)" d="m0 0 4 4 3 8v23h-1l-2-13-2 7h-1l-1-17-2-7 2-1z" fill="#FEF9F1"/>
<path transform="translate(374,577)" d="m0 0h3l1 2 2-2v16l-2 10-2 2-2-7z" fill="#FDFDFD"/>
<path transform="translate(190,512)" d="m0 0 2 4-4 15h-2l-1 13-2 4v-24l2-9z" fill="#FEF9F1"/>
<path transform="translate(1269,745)" d="m0 0 5 5-2 1 1 4 1 7v3l-3 1-8-13 1-5z" fill="#FEF9F1"/>
<path transform="translate(1882,503)" d="m0 0h1l1 11 1 4-3 9h-6l-1 5-2 4-1-2z" fill="#FEF9F1"/>
<path transform="translate(299,511)" d="m0 0 7 1 7 14v12h-2l-5-15-7-11z" fill="#FEF9F1"/>
<path transform="translate(563,207)" d="m0 0 8 1 7 14-1 6-2-4h-2l-1 3-4-10-5-8z" fill="#FEF9F1"/>
<path transform="translate(1710,260)" d="m0 0h1l1 17 3-3v10l-2 13h-6l2-15z" fill="#FEFAF6"/>
<path transform="translate(1567,601)" d="m0 0 6 1-3 1v5l-4 2-5 7-1-2h-5l2-4 7-9z" fill="#FFF9F1"/>
<path transform="translate(1804,581)" d="m0 0 5 3 6 8 4 10 1 5-3-1-5-9-3-1-5-13z" fill="#FDFCFA"/>
<path transform="translate(951,879)" d="m0 0 7 4 11 2-2 3 1 2-3 1-10-2-7-4z" fill="#FEF9F1"/>
<path transform="translate(813,517)" d="m0 0 19 1v1l-7 1v2l30 3v1h-13l-31-3v-1l6-1v-2z" fill="#FFF9F1"/>
<path transform="translate(920,855)" d="m0 0 6 1v9l4 12 2 5-6-5-2-5 1-5h-6z" fill="#FDFCFA"/>
<path transform="translate(890,498)" d="m0 0h16l25 1 3 1 23 2v1h-14l-53-4z" fill="#FFF9F1"/>
<path transform="translate(1371,858)" d="m0 0h1v7h2v4h2l1-8h1v9l-2 6h2l2 7h-3l-5-10-1-6z" fill="#FEF9F1"/>
<path transform="translate(1633,807)" d="m0 0 1 4 6-1 3 11-2 1-2 4-5-10z" fill="#FFF9F1"/>
<path transform="translate(571,643)" d="m0 0h6v2l-3 3-1 55h-1z" fill="#FEF9F1"/>
<path transform="translate(1954,496)" d="m0 0 5 2 3 5 2 2 1 3 13 2v1h-11l-8-4-6-8z" fill="#FFF9F1"/>
<path transform="translate(315,783)" d="m0 0 5 2 2 2 1 4h2l2 4v13l-2-4-4-10z" fill="#FEF9F1"/>
<path transform="translate(560,622)" d="m0 0 4 2 5 6-3 5-5-5-5-6z" fill="#FEF9F2"/>
<path transform="translate(1816,495)" d="m0 0h3l4 8 3 2v2l3-1 1 10-4-1-10-19z" fill="#FEF9F1"/>
<path transform="translate(825,691)" d="m0 0 3 1v2h5l-3 2-12 6-3-1 2-1 2-6z" fill="#FFF9F1"/>
<path transform="translate(1461,599)" d="m0 0h1v23h-1l-2-13-2 7h-1v-16l2 3h3z" fill="#FFF9F1"/>
<path transform="translate(1699,223)" d="m0 0 3 3 6 10 2 5-1 5 1 5v8h-1l-4-20-5-12z" fill="#FFF9F1"/>
<path transform="translate(1781,554)" d="m0 0 3 1v2l2 1-1 12h-1v-5l-4-1-1 6h-1v-9z" fill="#FEF9F1"/>
<path transform="translate(1125,496)" d="m0 0h6l1 4h-17l-6-1v-2h9z" fill="#FDFDFD"/>
<path transform="translate(1727,513)" d="m0 0 1 2-1 5-2 32h-1v-35z" fill="#FEF9F1"/>
<path transform="translate(1263,850)" d="m0 0 3 1 3 5 1 4v9l-2-2-6-16z" fill="#FFF9F1"/>
<path transform="translate(550,599)" d="m0 0h3l1 11h2l1 5-5-1-1 2-1-4z" fill="#FEF9F1"/>
<path transform="translate(832,787)" d="m0 0 4 1-4 2v29l4 1-3 2h-3v-34z" fill="#FDFBF8"/>
<path transform="translate(1695,361)" d="m0 0 2 4 5 2-3 3-6 2-4-1z" fill="#FDFBF9"/>
<path transform="translate(1632,592)" d="m0 0 4 2h2v16h-1l-1-9h-3l-1 3z" fill="#FFF9F1"/>
<path transform="translate(359,532)" d="m0 0h1v14l4 1-1 7-2 3-2-8z" fill="#FEF9F1"/>
<path transform="translate(1692,542)" d="m0 0 5 1 1 2 2-1 2 7-5 3-4-10z" fill="#FEF9F1"/>
<path transform="translate(1879,230)" d="m0 0 2 1-1 10-5 6h-2l3-9z" fill="#FFF9F1"/>
<path transform="translate(543,874)" d="m0 0 4 5 2 4h-8l-4 2 2-4z" fill="#FDFCFA"/>
<path transform="translate(444,584)" d="m0 0 7 6 4 5-5-2-7-1v-7z" fill="#FDFBF9"/>
<path transform="translate(346,319)" d="m0 0 4 4 5 11 1 6-3-3-7-15z" fill="#FFF9F1"/>
<path transform="translate(544,837)" d="m0 0 5 3h5l-6 9-2-3z" fill="#FDFCFA"/>
<path transform="translate(376,822)" d="m0 0h3v11l-2 3-2-6v-7z" fill="#FDFDFD"/>
<path transform="translate(1054,765)" d="m0 0 6 4 3 8v7l-2-3-7-14z" fill="#FFF9F1"/>
<path transform="translate(453,735)" d="m0 0 9 2-2 2 3 2h-11l-2-3z" fill="#FEF9F2"/>
<path transform="translate(1167,724)" d="m0 0h1v5l3 1 1 2v10l-1-3h-2l-2-6z" fill="#FDFDFD"/>
<path transform="translate(1804,581)" d="m0 0 5 3 4 6-1 3h-4l-4-10z" fill="#FEF9F1"/>
<path transform="translate(1878,155)" d="m0 0 5 5 3 10v9h-1l-4-16-3-6z" fill="#FFF9F1"/>
<path transform="translate(430,585)" d="m0 0h1v25h-1l-2-16z" fill="#FDFDFD"/>
<path transform="translate(642,824)" d="m0 0h11l-4 4-4 2h-3z" fill="#FDFCFA"/>
<path transform="translate(1291,140)" d="m0 0h20l-3 3h-15z" fill="#FEFAF6"/>
<path transform="translate(1791,475)" d="m0 0 5 1-1 5-3-1-7-1 3-3z" fill="#FFF9F1"/>
<path transform="translate(1106,661)" d="m0 0h1l1 5v11h-1v-7l-4-1v-7l2 2z" fill="#FFF9F1"/>
<path transform="translate(1308,622)" d="m0 0 3 3 1 9h2l-1 10h-1l-3-16z" fill="#FFF9F1"/>
<path transform="translate(1366,617)" d="m0 0 2 1 1 14-2 4-1-6z" fill="#FEF9F2"/>
<path transform="translate(1308,694)" d="m0 0 2 4-2 1v2l2 1h-3v2h-2l-2 6-2 1 2-6z" fill="#FFF9F1"/>
<path transform="translate(1950,514)" d="m0 0 4 2v3l-4 2h-3l2-6z" fill="#FDFBF9"/>
<path transform="translate(180,139)" d="m0 0 2 1-8 8v2l3 2-2 1-6-1 6-8z" fill="#FEFAF4"/>
<path transform="translate(47,71)" d="m0 0 2 1-1 7h-7l4-6z" fill="#FFF9F1"/>
<path transform="translate(1459,594)" d="m0 0 2 1v8l-4 1-1-6z" fill="#FDFCFC"/>
<path transform="translate(853,587)" d="m0 0 5 2v1h-19l1-2h11z" fill="#FEF9F2"/>
<path transform="translate(329,554)" d="m0 0 2 1v22l-3 2 1-6z" fill="#FEFAF5"/>
<path transform="translate(1854,530)" d="m0 0h7l1 2-2 5-3-1z" fill="#FDFBF9"/>
<path transform="translate(1373,873)" d="m0 0 1 2 4 1 2 7h-3l-4-7z" fill="#FEFAF6"/>
<path transform="translate(200,523)" d="m0 0h9l6 1v1l-15 2z" fill="#FDFBF7"/>
<path transform="translate(546,386)" d="m0 0 6 2 8 7h-3l-11-8z" fill="#FEFAF5"/>
<path transform="translate(1865,554)" d="m0 0h1v10l-2 3-2-6z" fill="#FFF9F1"/>
<path transform="translate(1328,140)" d="m0 0h11l3 5-1 2-5-5-5 1z" fill="#FEFAF5"/>
<path transform="translate(1169,835)" d="m0 0h2v6l-5 1v-5z" fill="#FDFDFD"/>
<path transform="translate(832,658)" d="m0 0 6 3-4 2-4 5 1-9z" fill="#FDFBF7"/>
<path transform="translate(1573,298)" d="m0 0 5 1v3h-4v12h-1z" fill="#FFF9F1"/>
<path transform="translate(1710,260)" d="m0 0h1l1 17 1 4h-3z" fill="#FFF9F1"/>
<path transform="translate(1842,539)" d="m0 0 3 1 1 4 4 2h-3l-2-1-1 2-3-7z" fill="#FFF9F1"/>
<path transform="translate(761,145)" d="m0 0 2 1v2l6 2-2 5-3-3-3-5z" fill="#FDFBF8"/>
<path transform="translate(1865,898)" d="m0 0 2 1z" fill="#FDFDFD"/>
<path transform="translate(1343,521)" d="m0 0" fill="#FDFDFD"/>
</svg>
